# xmcd CD database file
#
# Track frame offsets:
#	150
#	21275
#	35444
#	49853
#	72928
#	89177
#	104363
#	117939
#	144130
#	157035
#
# Disc length: 2352 seconds
#
# Revision: 0
# Processed by: cddbd v1.5.2PL0 Copyright (c) Steve Scherf et al.
# Submitted via: CDex 1.51
#
DISCID=89092e0a
DTITLE=Cakewalkin' Jass Band - Traditional Jazz
DYEAR=1990
DGENRE=Jazz
TTITLE0=Cake-Walking Babies From Home
TTITLE1=My Sweet Lovin' Man
TTITLE2=Doctor Jazz
TTITLE3=Black and Blue
TTITLE4=Ice Cream
TTITLE5=Canal Street Blues
TTITLE6=Milneburg Joys
TTITLE7=St. Louis Blues
TTITLE8=Perdido Street
TTITLE9=Won't You Come Home, Bill Bailey
EXTD=YEAR: 1990
EXTT0=
EXTT1=
EXTT2=
EXTT3=
EXTT4=
EXTT5=
EXTT6=
EXTT7=
EXTT8=
EXTT9=
PLAYORDER=
